REM DIRINDEX 1\2,1\3,1\4,1\5
REM DIRNAME cjc004,folder01,folder02,folder03,folder04
TITLE ""
FILE "1Q_t_1971-1980.mp3" MP3
  TRACK 01 AUDIO
    TITLE "3:cjc004_6821"
    INDEX 01 00:00:00
  TRACK 02 AUDIO
    TITLE "0:"
    INDEX 01 00:01:01
  TRACK 03 AUDIO
    TITLE "4:cjc004_6822"
    INDEX 01 00:01:24
  TRACK 04 AUDIO
    TITLE "0:"
    INDEX 01 00:02:59
  TRACK 05 AUDIO
    TITLE "5:cjc004_6823"
    INDEX 01 00:03:02
  TRACK 06 AUDIO
    TITLE "0:"
    INDEX 01 00:07:45
  TRACK 07 AUDIO
    TITLE "3:cjc004_6824"
    INDEX 01 00:08:24
  TRACK 08 AUDIO
    TITLE "0:"
    INDEX 01 00:09:47
  TRACK 09 AUDIO
    TITLE "4:cjc004_6825"
    INDEX 01 00:09:73
  TRACK 10 AUDIO
    TITLE "0:"
    INDEX 01 00:11:19
  TRACK 11 AUDIO
    TITLE "5:cjc004_6826"
    INDEX 01 00:11:39
  TRACK 12 AUDIO
    TITLE "0:"
    INDEX 01 00:16:36
  TRACK 13 AUDIO
    TITLE "3:cjc004_6827"
    INDEX 01 00:17:12
  TRACK 14 AUDIO
    TITLE "0:"
    INDEX 01 00:18:25
  TRACK 15 AUDIO
    TITLE "4:cjc004_6828"
    INDEX 01 00:18:56
  TRACK 16 AUDIO
    TITLE "0:"
    INDEX 01 00:20:10
  TRACK 17 AUDIO
    TITLE "5:cjc004_6829"
    INDEX 01 00:20:34
  TRACK 18 AUDIO
    TITLE "0:"
    INDEX 01 00:25:13
  TRACK 19 AUDIO
    TITLE "3:cjc004_6830"
    INDEX 01 00:25:68
  TRACK 20 AUDIO
    TITLE "0:"
    INDEX 01 00:27:22
  TRACK 21 AUDIO
    TITLE "4:cjc004_6831"
    INDEX 01 00:27:49
  TRACK 22 AUDIO
    TITLE "0:"
    INDEX 01 00:29:03
  TRACK 23 AUDIO
    TITLE "5:cjc004_6832"
    INDEX 01 00:29:27
  TRACK 24 AUDIO
    TITLE "0:"
    INDEX 01 00:33:58
  TRACK 25 AUDIO
    TITLE "3:cjc004_6833"
    INDEX 01 00:34:36
  TRACK 26 AUDIO
    TITLE "0:"
    INDEX 01 00:35:57
  TRACK 27 AUDIO
    TITLE "4:cjc004_6834"
    INDEX 01 00:36:07
  TRACK 28 AUDIO
    TITLE "0:"
    INDEX 01 00:37:18
  TRACK 29 AUDIO
    TITLE "5:cjc004_6835"
    INDEX 01 00:37:42
  TRACK 30 AUDIO
    TITLE "0:"
    INDEX 01 00:43:09
  TRACK 31 AUDIO
    TITLE "3:cjc004_6836"
    INDEX 01 00:43:62
  TRACK 32 AUDIO
    TITLE "0:"
    INDEX 01 00:44:65
  TRACK 33 AUDIO
    TITLE "4:cjc004_6837"
    INDEX 01 00:45:16
  TRACK 34 AUDIO
    TITLE "0:"
    INDEX 01 00:46:56
  TRACK 35 AUDIO
    TITLE "5:cjc004_6838"
    INDEX 01 00:47:11
  TRACK 36 AUDIO
    TITLE "0:"
    INDEX 01 00:51:69
  TRACK 37 AUDIO
    TITLE "3:cjc004_6839"
    INDEX 01 00:52:41
  TRACK 38 AUDIO
    TITLE "0:"
    INDEX 01 00:53:51
  TRACK 39 AUDIO
    TITLE "4:cjc004_6840"
    INDEX 01 00:54:05
  TRACK 40 AUDIO
    TITLE "0:"
    INDEX 01 00:55:57
  TRACK 41 AUDIO
    TITLE "5:cjc004_6841"
    INDEX 01 00:55:73
  TRACK 42 AUDIO
    TITLE "0:"
    INDEX 01 01:00:00
  TRACK 43 AUDIO
    TITLE "3:cjc004_6842"
    INDEX 01 01:00:47
  TRACK 44 AUDIO
    TITLE "0:"
    INDEX 01 01:01:58
  TRACK 45 AUDIO
    TITLE "4:cjc004_6843"
    INDEX 01 01:02:03
  TRACK 46 AUDIO
    TITLE "0:"
    INDEX 01 01:03:59
  TRACK 47 AUDIO
    TITLE "5:cjc004_6844"
    INDEX 01 01:04:09
  TRACK 48 AUDIO
    TITLE "0:"
    INDEX 01 01:09:10
  TRACK 49 AUDIO
    TITLE "3:cjc004_6845"
    INDEX 01 01:09:65
  TRACK 50 AUDIO
    TITLE "0:"
    INDEX 01 01:11:23
  TRACK 51 AUDIO
    TITLE "4:cjc004_6846"
    INDEX 01 01:11:51
  TRACK 52 AUDIO
    TITLE "0:"
    INDEX 01 01:13:12
  TRACK 53 AUDIO
    TITLE "5:cjc004_6847"
    INDEX 01 01:13:38
  TRACK 54 AUDIO
    TITLE "0:"
    INDEX 01 01:19:28
  TRACK 55 AUDIO
    TITLE "3:cjc004_6848"
    INDEX 01 01:20:08
  TRACK 56 AUDIO
    TITLE "0:"
    INDEX 01 01:21:25
  TRACK 57 AUDIO
    TITLE "4:cjc004_6849"
    INDEX 01 01:21:51
  TRACK 58 AUDIO
    TITLE "0:"
    INDEX 01 01:23:11
  TRACK 59 AUDIO
    TITLE "5:cjc004_6850"
    INDEX 01 01:23:34
  TRACK 60 AUDIO
    TITLE "0:"
    INDEX 01 01:27:57
